# xmcd
# Track frame offsets:
# 182
# 14380
# 23747
# 39217
# 51880
# 62337
# 72402
# 84290
# 96362
# 108320
# 120102
# 130302
# 141527
# 153377
# 164937
# 177980
#
# Disc length: 2558 seconds
# Revision: 0
# Processed by: cddbd v1.4PL0 Copyright (c) Steve Scherf et al.
# Submitted via: VisiTrax 2.9.5.180 - For more info visit www.synapsa.com
#
DISCID=d409fc10
DTITLE=The Cattlemen - Songs of the west
DYEAR=1900
DGENRE=
TTITLE0=Red River Valley
TTITLE1=The yellow rose of Texas
TTITLE2=Cool water
TTITLE3=Tumbling tumbleweeds
TTITLE4=Wagon wheels
TTITLE5=The streets of Laredo
TTITLE6=A cowboy's dream
TTITLE7=Ridin' down the canyon
TTITLE8=Cowboy Jack
TTITLE9=When the work's all done this fall
TTITLE10=Whoopee ti yi yo
TTITLE11=Take me back to my boots and saddle
TTITLE12=Old paint
TTITLE13=In the pines
TTITLE14=Bury me not on the lone prairie
TTITLE15=Last round-up
EXTD=
EXTT0=
EXTT1=
EXTT2=
EXTT3=
EXTT4=
EXTT5=
EXTT6=
EXTT7=
EXTT8=
EXTT9=
EXTT10=
EXTT11=
EXTT12=
EXTT13=
EXTT14=
EXTT15=
PLAYORDER=
